<?xml version="1.0" encoding="utf-8" standalone="no"?>
<!DOCTYPE svg PUBLIC "-//W3C//DTD SVG 1.1//EN"
  "http://www.w3.org/Graphics/SVG/1.1/DTD/svg11.dtd">
<svg xmlns:xlink="http://www.w3.org/1999/xlink" width="390.344403pt" height="281.634375pt" viewBox="0 0 390.344403 281.634375" xmlns="http://www.w3.org/2000/svg" version="1.1">
 <metadata>
  <rdf:RDF xmlns:dc="http://purl.org/dc/elements/1.1/" xmlns:cc="http://creativecommons.org/ns#" xmlns:rdf="http://www.w3.org/1999/02/22-rdf-syntax-ns#">
   <cc:Work>
    <dc:type rdf:resource="http://purl.org/dc/dcmitype/StillImage"/>
    <dc:date>2026-07-10T12:33:59.646304</dc:date>
    <dc:format>image/svg+xml</dc:format>
    <dc:creator>
     <cc:Agent>
      <dc:title>Matplotlib v3.10.7, https://matplotlib.org/</dc:title>
     </cc:Agent>
    </dc:creator>
   </cc:Work>
  </rdf:RDF>
 </metadata>
 <defs>
  <style type="text/css">*{stroke-linejoin: round; stroke-linecap: butt}</style>
 </defs>
 <g id="figure_1">
  <g id="patch_1">
   <path d="M 0 281.634375 
L 390.344403 281.634375 
L 390.344403 0 
L 0 0 
z
" style="fill: #ffffff"/>
  </g>
  <g id="axes_1">
   <g id="patch_2">
    <path d="M 40.603125 244.078125 
L 364.243125 244.078125 
L 364.243125 22.318125 
L 40.603125 22.318125 
z
" style="fill: #ffffff"/>
   </g>
   <g id="PathCollection_1">
    <path d="M 79.073241 94.998125 
C 80.399257 94.998125 81.671141 94.471293 82.608775 93.533659 
C 83.54641 92.596024 84.073241 91.32414 84.073241 89.998125 
C 84.073241 88.672109 83.54641 87.400226 82.608775 86.462591 
C 81.671141 85.524957 80.399257 84.998125 79.073241 84.998125 
C 77.747226 84.998125 76.475342 85.524957 75.537707 86.462591 
C 74.600073 87.400226 74.073241 88.672109 74.073241 89.998125 
C 74.073241 91.32414 74.600073 92.596024 75.537707 93.533659 
C 76.475342 94.471293 77.747226 94.998125 79.073241 94.998125 
z
" clip-path="url(#p1664c80610)" style="fill: #0f766e; fill-opacity: 0.8; stroke: #ffffff; stroke-opacity: 0.8; stroke-width: 0.5"/>
    <path d="M 55.314034 37.642169 
C 56.704771 37.642169 58.038734 37.089624 59.022133 36.106224 
C 60.005533 35.122825 60.558078 33.788862 60.558078 32.398125 
C 60.558078 31.007388 60.005533 29.673425 59.022133 28.690026 
C 58.038734 27.706626 56.704771 27.154081 55.314034 27.154081 
C 53.923297 27.154081 52.589334 27.706626 51.605935 28.690026 
C 50.622535 29.673425 50.06999 31.007388 50.06999 32.398125 
C 50.06999 33.788862 50.622535 35.122825 51.605935 36.106224 
C 52.589334 37.089624 53.923297 37.642169 55.314034 37.642169 
z
" clip-path="url(#p1664c80610)" style="fill: #0f766e; fill-opacity: 0.8; stroke: #ffffff; stroke-opacity: 0.8; stroke-width: 0.5"/>
    <path d="M 288.154264 152.070261 
C 289.340288 152.070261 290.477896 151.599048 291.316542 150.760403 
C 292.155188 149.921757 292.6264 148.784149 292.6264 147.598125 
C 292.6264 146.412101 292.155188 145.274493 291.316542 144.435847 
C 290.477896 143.597202 289.340288 143.125989 288.154264 143.125989 
C 286.96824 143.125989 285.830632 143.597202 284.991986 144.435847 
C 284.153341 145.274493 283.682128 146.412101 283.682128 147.598125 
C 283.682128 148.784149 284.153341 149.921757 284.991986 150.760403 
C 285.830632 151.599048 286.96824 152.070261 288.154264 152.070261 
z
" clip-path="url(#p1664c80610)" style="fill: #0f766e; fill-opacity: 0.8; stroke: #ffffff; stroke-opacity: 0.8; stroke-width: 0.5"/>
    <path d="M 283.402423 123.541541 
C 284.660391 123.541541 285.867006 123.041745 286.756525 122.152227 
C 287.646043 121.262709 288.145839 120.056094 288.145839 118.798125 
C 288.145839 117.540156 287.646043 116.333541 286.756525 115.444023 
C 285.867006 114.554505 284.660391 114.054709 283.402423 114.054709 
C 282.144454 114.054709 280.937839 114.554505 280.048321 115.444023 
C 279.158802 116.333541 278.659006 117.540156 278.659006 118.798125 
C 278.659006 120.056094 279.158802 121.262709 280.048321 122.152227 
C 280.937839 123.041745 282.144454 123.541541 283.402423 123.541541 
z
" clip-path="url(#p1664c80610)" style="fill: #0f766e; fill-opacity: 0.8; stroke: #ffffff; stroke-opacity: 0.8; stroke-width: 0.5"/>
    <path d="M 267.562951 179.933659 
C 268.500586 179.933659 269.399944 179.561133 270.062951 178.898125 
C 270.725959 178.235117 271.098485 177.33576 271.098485 176.398125 
C 271.098485 175.46049 270.725959 174.561133 270.062951 173.898125 
C 269.399944 173.235117 268.500586 172.862591 267.562951 172.862591 
C 266.625317 172.862591 265.725959 173.235117 265.062951 173.898125 
C 264.399944 174.561133 264.027417 175.46049 264.027417 176.398125 
C 264.027417 177.33576 264.399944 178.235117 265.062951 178.898125 
C 265.725959 179.561133 266.625317 179.933659 267.562951 179.933659 
z
" clip-path="url(#p1664c80610)" style="fill: #0f766e; fill-opacity: 0.8; stroke: #ffffff; stroke-opacity: 0.8; stroke-width: 0.5"/>
    <path d="M 212.124801 152.070261 
C 213.310826 152.070261 214.448433 151.599048 215.287079 150.760403 
C 216.125725 149.921757 216.596937 148.784149 216.596937 147.598125 
C 216.596937 146.412101 216.125725 145.274493 215.287079 144.435847 
C 214.448433 143.597202 213.310826 143.125989 212.124801 143.125989 
C 210.938777 143.125989 209.801169 143.597202 208.962524 144.435847 
C 208.123878 145.274493 207.652665 146.412101 207.652665 147.598125 
C 207.652665 148.784149 208.123878 149.921757 208.962524 150.760403 
C 209.801169 151.599048 210.938777 152.070261 212.124801 152.070261 
z
" clip-path="url(#p1664c80610)" style="fill: #0f766e; fill-opacity: 0.8; stroke: #ffffff; stroke-opacity: 0.8; stroke-width: 0.5"/>
    <path d="M 163.02244 180.271108 
C 164.049567 180.271108 165.034764 179.863026 165.761053 179.136738 
C 166.487341 178.410449 166.895423 177.425252 166.895423 176.398125 
C 166.895423 175.370998 166.487341 174.385801 165.761053 173.659512 
C 165.034764 172.933224 164.049567 172.525142 163.02244 172.525142 
C 161.995313 172.525142 161.010116 172.933224 160.283827 173.659512 
C 159.557538 174.385801 159.149456 175.370998 159.149456 176.398125 
C 159.149456 177.425252 159.557538 178.410449 160.283827 179.136738 
C 161.010116 179.863026 161.995313 180.271108 163.02244 180.271108 
z
" clip-path="url(#p1664c80610)" style="fill: #0f766e; fill-opacity: 0.8; stroke: #ffffff; stroke-opacity: 0.8; stroke-width: 0.5"/>
    <path d="M 175.694017 208.733659 
C 176.631652 208.733659 177.531009 208.361133 178.194017 207.698125 
C 178.857025 207.035117 179.229551 206.13576 179.229551 205.198125 
C 179.229551 204.26049 178.857025 203.361133 178.194017 202.698125 
C 177.531009 202.035117 176.631652 201.662591 175.694017 201.662591 
C 174.756382 201.662591 173.857025 202.035117 173.194017 202.698125 
C 172.531009 203.361133 172.158483 204.26049 172.158483 205.198125 
C 172.158483 206.13576 172.531009 207.035117 173.194017 207.698125 
C 173.857025 208.361133 174.756382 208.733659 175.694017 208.733659 
z
" clip-path="url(#p1664c80610)" style="fill: #0f766e; fill-opacity: 0.8; stroke: #ffffff; stroke-opacity: 0.8; stroke-width: 0.5"/>
    <path d="M 269.146898 180.870261 
C 270.332923 180.870261 271.47053 180.399048 272.309176 179.560403 
C 273.147822 178.721757 273.619034 177.584149 273.619034 176.398125 
C 273.619034 175.212101 273.147822 174.074493 272.309176 173.235847 
C 271.47053 172.397202 270.332923 171.925989 269.146898 171.925989 
C 267.960874 171.925989 266.823267 172.397202 265.984621 173.235847 
C 265.145975 174.074493 264.674762 175.212101 264.674762 176.398125 
C 264.674762 177.584149 265.145975 178.721757 265.984621 179.560403 
C 266.823267 180.399048 267.960874 180.870261 269.146898 180.870261 
z
" clip-path="url(#p1664c80610)" style="fill: #0f766e; fill-opacity: 0.8; stroke: #ffffff; stroke-opacity: 0.8; stroke-width: 0.5"/>
    <path d="M 289.738211 237.871108 
C 290.765338 237.871108 291.750535 237.463026 292.476824 236.736738 
C 293.203113 236.010449 293.611195 235.025252 293.611195 233.998125 
C 293.611195 232.970998 293.203113 231.985801 292.476824 231.259512 
C 291.750535 230.533224 290.765338 230.125142 289.738211 230.125142 
C 288.711084 230.125142 287.725887 230.533224 286.999598 231.259512 
C 286.27331 231.985801 285.865228 232.970998 285.865228 233.998125 
C 285.865228 235.025252 286.27331 236.010449 286.999598 236.736738 
C 287.725887 237.463026 288.711084 237.871108 289.738211 237.871108 
z
" clip-path="url(#p1664c80610)" style="fill: #0f766e; fill-opacity: 0.8; stroke: #ffffff; stroke-opacity: 0.8; stroke-width: 0.5"/>
    <path d="M 311.517484 180.870261 
C 312.703509 180.870261 313.841116 180.399048 314.679762 179.560403 
C 315.518408 178.721757 315.98962 177.584149 315.98962 176.398125 
C 315.98962 175.212101 315.518408 174.074493 314.679762 173.235847 
C 313.841116 172.397202 312.703509 171.925989 311.517484 171.925989 
C 310.33146 171.925989 309.193853 172.397202 308.355207 173.235847 
C 307.516561 174.074493 307.045349 175.212101 307.045349 176.398125 
C 307.045349 177.584149 307.516561 178.721757 308.355207 179.560403 
C 309.193853 180.399048 310.33146 180.870261 311.517484 180.870261 
z
" clip-path="url(#p1664c80610)" style="fill: #0f766e; fill-opacity: 0.8; stroke: #ffffff; stroke-opacity: 0.8; stroke-width: 0.5"/>
    <path d="M 79.865215 123.270261 
C 81.051239 123.270261 82.188847 122.799048 83.027492 121.960403 
C 83.866138 121.121757 84.337351 119.984149 84.337351 118.798125 
C 84.337351 117.612101 83.866138 116.474493 83.027492 115.635847 
C 82.188847 114.797202 81.051239 114.325989 79.865215 114.325989 
C 78.67919 114.325989 77.541583 114.797202 76.702937 115.635847 
C 75.864291 116.474493 75.393079 117.612101 75.393079 118.798125 
C 75.393079 119.984149 75.864291 121.121757 76.702937 121.960403 
C 77.541583 122.799048 78.67919 123.270261 79.865215 123.270261 
z
" clip-path="url(#p1664c80610)" style="fill: #0f766e; fill-opacity: 0.8; stroke: #ffffff; stroke-opacity: 0.8; stroke-width: 0.5"/>
    <path d="M 224.796378 65.381425 
C 225.905803 65.381425 226.969937 64.940646 227.754418 64.156165 
C 228.5389 63.371684 228.979679 62.307549 228.979679 61.198125 
C 228.979679 60.088701 228.5389 59.024566 227.754418 58.240085 
C 226.969937 57.455604 225.905803 57.014825 224.796378 57.014825 
C 223.686954 57.014825 222.62282 57.455604 221.838339 58.240085 
C 221.053857 59.024566 220.613078 60.088701 220.613078 61.198125 
C 220.613078 62.307549 221.053857 63.371684 221.838339 64.156165 
C 222.62282 64.940646 223.686954 65.381425 224.796378 65.381425 
z
" clip-path="url(#p1664c80610)" style="fill: #0f766e; fill-opacity: 0.8; stroke: #ffffff; stroke-opacity: 0.8; stroke-width: 0.5"/>
    <path d="M 349.532216 123.541541 
C 350.790185 123.541541 351.9968 123.041745 352.886318 122.152227 
C 353.775836 121.262709 354.275632 120.056094 354.275632 118.798125 
C 354.275632 117.540156 353.775836 116.333541 352.886318 115.444023 
C 351.9968 114.554505 350.790185 114.054709 349.532216 114.054709 
C 348.274247 114.054709 347.067632 114.554505 346.178114 115.444023 
C 345.288596 116.333541 344.788799 117.540156 344.788799 118.798125 
C 344.788799 120.056094 345.288596 121.262709 346.178114 122.152227 
C 347.067632 123.041745 348.274247 123.541541 349.532216 123.541541 
z
" clip-path="url(#p1664c80610)" style="fill: #0f766e; fill-opacity: 0.8; stroke: #ffffff; stroke-opacity: 0.8; stroke-width: 0.5"/>
    <path d="M 227.964273 152.070261 
C 229.150297 152.070261 230.287905 151.599048 231.12655 150.760403 
C 231.965196 149.921757 232.436409 148.784149 232.436409 147.598125 
C 232.436409 146.412101 231.965196 145.274493 231.12655 144.435847 
C 230.287905 143.597202 229.150297 143.125989 227.964273 143.125989 
C 226.778248 143.125989 225.640641 143.597202 224.801995 144.435847 
C 223.963349 145.274493 223.492137 146.412101 223.492137 147.598125 
C 223.492137 148.784149 223.963349 149.921757 224.801995 150.760403 
C 225.640641 151.599048 226.778248 152.070261 227.964273 152.070261 
z
" clip-path="url(#p1664c80610)" style="fill: #0f766e; fill-opacity: 0.8; stroke: #ffffff; stroke-opacity: 0.8; stroke-width: 0.5"/>
   </g>
   <g id="matplotlib.axis_1">
    <g id="xtick_1">
     <g id="line2d_1">
      <path d="M 50.562193 244.078125 
L 50.562193 22.318125 
" clip-path="url(#p1664c80610)" style="fill: none; stroke: #b0b0b0; stroke-opacity: 0.4; stroke-width: 0.3; stroke-linecap: square"/>
     </g>
     <g id="line2d_2">
      <defs>
       <path id="m489d584173" d="M 0 0 
L 0 3.5 
" style="stroke: #000000; stroke-width: 0.8"/>
      </defs>
      <g>
       <use xlink:href="#m489d584173" x="50.562193" y="244.078125" style="stroke: #000000; stroke-width: 0.8"/>
      </g>
     </g>
     <g id="text_1">
      <!-- 0 -->
      <g transform="translate(47.380943 258.676562) scale(0.1 -0.1)">
       <defs>
        <path id="DejaVuSans-30" d="M 2034 4250 
Q 1547 4250 1301 3770 
Q 1056 3291 1056 2328 
Q 1056 1369 1301 889 
Q 1547 409 2034 409 
Q 2525 409 2770 889 
Q 3016 1369 3016 2328 
Q 3016 3291 2770 3770 
Q 2525 4250 2034 4250 
z
M 2034 4750 
Q 2819 4750 3233 4129 
Q 3647 3509 3647 2328 
Q 3647 1150 3233 529 
Q 2819 -91 2034 -91 
Q 1250 -91 836 529 
Q 422 1150 422 2328 
Q 422 3509 836 4129 
Q 1250 4750 2034 4750 
z
" transform="scale(0.015625)"/>
       </defs>
       <use xlink:href="#DejaVuSans-30"/>
      </g>
     </g>
    </g>
    <g id="xtick_2">
     <g id="line2d_3">
      <path d="M 90.160871 244.078125 
L 90.160871 22.318125 
" clip-path="url(#p1664c80610)" style="fill: none; stroke: #b0b0b0; stroke-opacity: 0.4; stroke-width: 0.3; stroke-linecap: square"/>
     </g>
     <g id="line2d_4">
      <g>
       <use xlink:href="#m489d584173" x="90.160871" y="244.078125" style="stroke: #000000; stroke-width: 0.8"/>
      </g>
     </g>
     <g id="text_2">
      <!-- 1 -->
      <g transform="translate(86.979621 258.676562) scale(0.1 -0.1)">
       <defs>
        <path id="DejaVuSans-31" d="M 794 531 
L 1825 531 
L 1825 4091 
L 703 3866 
L 703 4441 
L 1819 4666 
L 2450 4666 
L 2450 531 
L 3481 531 
L 3481 0 
L 794 0 
L 794 531 
z
" transform="scale(0.015625)"/>
       </defs>
       <use xlink:href="#DejaVuSans-31"/>
      </g>
     </g>
    </g>
    <g id="xtick_3">
     <g id="line2d_5">
      <path d="M 129.75955 244.078125 
L 129.75955 22.318125 
" clip-path="url(#p1664c80610)" style="fill: none; stroke: #b0b0b0; stroke-opacity: 0.4; stroke-width: 0.3; stroke-linecap: square"/>
     </g>
     <g id="line2d_6">
      <g>
       <use xlink:href="#m489d584173" x="129.75955" y="244.078125" style="stroke: #000000; stroke-width: 0.8"/>
      </g>
     </g>
     <g id="text_3">
      <!-- 2 -->
      <g transform="translate(126.5783 258.676562) scale(0.1 -0.1)">
       <defs>
        <path id="DejaVuSans-32" d="M 1228 531 
L 3431 531 
L 3431 0 
L 469 0 
L 469 531 
Q 828 903 1448 1529 
Q 2069 2156 2228 2338 
Q 2531 2678 2651 2914 
Q 2772 3150 2772 3378 
Q 2772 3750 2511 3984 
Q 2250 4219 1831 4219 
Q 1534 4219 1204 4116 
Q 875 4013 500 3803 
L 500 4441 
Q 881 4594 1212 4672 
Q 1544 4750 1819 4750 
Q 2544 4750 2975 4387 
Q 3406 4025 3406 3419 
Q 3406 3131 3298 2873 
Q 3191 2616 2906 2266 
Q 2828 2175 2409 1742 
Q 1991 1309 1228 531 
z
" transform="scale(0.015625)"/>
       </defs>
       <use xlink:href="#DejaVuSans-32"/>
      </g>
     </g>
    </g>
    <g id="xtick_4">
     <g id="line2d_7">
      <path d="M 169.358228 244.078125 
L 169.358228 22.318125 
" clip-path="url(#p1664c80610)" style="fill: none; stroke: #b0b0b0; stroke-opacity: 0.4; stroke-width: 0.3; stroke-linecap: square"/>
     </g>
     <g id="line2d_8">
      <g>
       <use xlink:href="#m489d584173" x="169.358228" y="244.078125" style="stroke: #000000; stroke-width: 0.8"/>
      </g>
     </g>
     <g id="text_4">
      <!-- 3 -->
      <g transform="translate(166.176978 258.676562) scale(0.1 -0.1)">
       <defs>
        <path id="DejaVuSans-33" d="M 2597 2516 
Q 3050 2419 3304 2112 
Q 3559 1806 3559 1356 
Q 3559 666 3084 287 
Q 2609 -91 1734 -91 
Q 1441 -91 1130 -33 
Q 819 25 488 141 
L 488 750 
Q 750 597 1062 519 
Q 1375 441 1716 441 
Q 2309 441 2620 675 
Q 2931 909 2931 1356 
Q 2931 1769 2642 2001 
Q 2353 2234 1838 2234 
L 1294 2234 
L 1294 2753 
L 1863 2753 
Q 2328 2753 2575 2939 
Q 2822 3125 2822 3475 
Q 2822 3834 2567 4026 
Q 2313 4219 1838 4219 
Q 1578 4219 1281 4162 
Q 984 4106 628 3988 
L 628 4550 
Q 988 4650 1302 4700 
Q 1616 4750 1894 4750 
Q 2613 4750 3031 4423 
Q 3450 4097 3450 3541 
Q 3450 3153 3228 2886 
Q 3006 2619 2597 2516 
z
" transform="scale(0.015625)"/>
       </defs>
       <use xlink:href="#DejaVuSans-33"/>
      </g>
     </g>
    </g>
    <g id="xtick_5">
     <g id="line2d_9">
      <path d="M 208.956907 244.078125 
L 208.956907 22.318125 
" clip-path="url(#p1664c80610)" style="fill: none; stroke: #b0b0b0; stroke-opacity: 0.4; stroke-width: 0.3; stroke-linecap: square"/>
     </g>
     <g id="line2d_10">
      <g>
       <use xlink:href="#m489d584173" x="208.956907" y="244.078125" style="stroke: #000000; stroke-width: 0.8"/>
      </g>
     </g>
     <g id="text_5">
      <!-- 4 -->
      <g transform="translate(205.775657 258.676562) scale(0.1 -0.1)">
       <defs>
        <path id="DejaVuSans-34" d="M 2419 4116 
L 825 1625 
L 2419 1625 
L 2419 4116 
z
M 2253 4666 
L 3047 4666 
L 3047 1625 
L 3713 1625 
L 3713 1100 
L 3047 1100 
L 3047 0 
L 2419 0 
L 2419 1100 
L 313 1100 
L 313 1709 
L 2253 4666 
z
" transform="scale(0.015625)"/>
       </defs>
       <use xlink:href="#DejaVuSans-34"/>
      </g>
     </g>
    </g>
    <g id="xtick_6">
     <g id="line2d_11">
      <path d="M 248.555586 244.078125 
L 248.555586 22.318125 
" clip-path="url(#p1664c80610)" style="fill: none; stroke: #b0b0b0; stroke-opacity: 0.4; stroke-width: 0.3; stroke-linecap: square"/>
     </g>
     <g id="line2d_12">
      <g>
       <use xlink:href="#m489d584173" x="248.555586" y="244.078125" style="stroke: #000000; stroke-width: 0.8"/>
      </g>
     </g>
     <g id="text_6">
      <!-- 5 -->
      <g transform="translate(245.374336 258.676562) scale(0.1 -0.1)">
       <defs>
        <path id="DejaVuSans-35" d="M 691 4666 
L 3169 4666 
L 3169 4134 
L 1269 4134 
L 1269 2991 
Q 1406 3038 1543 3061 
Q 1681 3084 1819 3084 
Q 2600 3084 3056 2656 
Q 3513 2228 3513 1497 
Q 3513 744 3044 326 
Q 2575 -91 1722 -91 
Q 1428 -91 1123 -41 
Q 819 9 494 109 
L 494 744 
Q 775 591 1075 516 
Q 1375 441 1709 441 
Q 2250 441 2565 725 
Q 2881 1009 2881 1497 
Q 2881 1984 2565 2268 
Q 2250 2553 1709 2553 
Q 1456 2553 1204 2497 
Q 953 2441 691 2322 
L 691 4666 
z
" transform="scale(0.015625)"/>
       </defs>
       <use xlink:href="#DejaVuSans-35"/>
      </g>
     </g>
    </g>
    <g id="xtick_7">
     <g id="line2d_13">
      <path d="M 288.154264 244.078125 
L 288.154264 22.318125 
" clip-path="url(#p1664c80610)" style="fill: none; stroke: #b0b0b0; stroke-opacity: 0.4; stroke-width: 0.3; stroke-linecap: square"/>
     </g>
     <g id="line2d_14">
      <g>
       <use xlink:href="#m489d584173" x="288.154264" y="244.078125" style="stroke: #000000; stroke-width: 0.8"/>
      </g>
     </g>
     <g id="text_7">
      <!-- 6 -->
      <g transform="translate(284.973014 258.676562) scale(0.1 -0.1)">
       <defs>
        <path id="DejaVuSans-36" d="M 2113 2584 
Q 1688 2584 1439 2293 
Q 1191 2003 1191 1497 
Q 1191 994 1439 701 
Q 1688 409 2113 409 
Q 2538 409 2786 701 
Q 3034 994 3034 1497 
Q 3034 2003 2786 2293 
Q 2538 2584 2113 2584 
z
M 3366 4563 
L 3366 3988 
Q 3128 4100 2886 4159 
Q 2644 4219 2406 4219 
Q 1781 4219 1451 3797 
Q 1122 3375 1075 2522 
Q 1259 2794 1537 2939 
Q 1816 3084 2150 3084 
Q 2853 3084 3261 2657 
Q 3669 2231 3669 1497 
Q 3669 778 3244 343 
Q 2819 -91 2113 -91 
Q 1303 -91 875 529 
Q 447 1150 447 2328 
Q 447 3434 972 4092 
Q 1497 4750 2381 4750 
Q 2619 4750 2861 4703 
Q 3103 4656 3366 4563 
z
" transform="scale(0.015625)"/>
       </defs>
       <use xlink:href="#DejaVuSans-36"/>
      </g>
     </g>
    </g>
    <g id="xtick_8">
     <g id="line2d_15">
      <path d="M 327.752943 244.078125 
L 327.752943 22.318125 
" clip-path="url(#p1664c80610)" style="fill: none; stroke: #b0b0b0; stroke-opacity: 0.4; stroke-width: 0.3; stroke-linecap: square"/>
     </g>
     <g id="line2d_16">
      <g>
       <use xlink:href="#m489d584173" x="327.752943" y="244.078125" style="stroke: #000000; stroke-width: 0.8"/>
      </g>
     </g>
     <g id="text_8">
      <!-- 7 -->
      <g transform="translate(324.571693 258.676562) scale(0.1 -0.1)">
       <defs>
        <path id="DejaVuSans-37" d="M 525 4666 
L 3525 4666 
L 3525 4397 
L 1831 0 
L 1172 0 
L 2766 4134 
L 525 4134 
L 525 4666 
z
" transform="scale(0.015625)"/>
       </defs>
       <use xlink:href="#DejaVuSans-37"/>
      </g>
     </g>
    </g>
    <g id="text_9">
     <!-- Static risk score -->
     <g transform="translate(162.570781 272.354687) scale(0.1 -0.1)">
      <defs>
       <path id="DejaVuSans-53" d="M 3425 4513 
L 3425 3897 
Q 3066 4069 2747 4153 
Q 2428 4238 2131 4238 
Q 1616 4238 1336 4038 
Q 1056 3838 1056 3469 
Q 1056 3159 1242 3001 
Q 1428 2844 1947 2747 
L 2328 2669 
Q 3034 2534 3370 2195 
Q 3706 1856 3706 1288 
Q 3706 609 3251 259 
Q 2797 -91 1919 -91 
Q 1588 -91 1214 -16 
Q 841 59 441 206 
L 441 856 
Q 825 641 1194 531 
Q 1563 422 1919 422 
Q 2459 422 2753 634 
Q 3047 847 3047 1241 
Q 3047 1584 2836 1778 
Q 2625 1972 2144 2069 
L 1759 2144 
Q 1053 2284 737 2584 
Q 422 2884 422 3419 
Q 422 4038 858 4394 
Q 1294 4750 2059 4750 
Q 2388 4750 2728 4690 
Q 3069 4631 3425 4513 
z
" transform="scale(0.015625)"/>
       <path id="DejaVuSans-74" d="M 1172 4494 
L 1172 3500 
L 2356 3500 
L 2356 3053 
L 1172 3053 
L 1172 1153 
Q 1172 725 1289 603 
Q 1406 481 1766 481 
L 2356 481 
L 2356 0 
L 1766 0 
Q 1100 0 847 248 
Q 594 497 594 1153 
L 594 3053 
L 172 3053 
L 172 3500 
L 594 3500 
L 594 4494 
L 1172 4494 
z
" transform="scale(0.015625)"/>
       <path id="DejaVuSans-61" d="M 2194 1759 
Q 1497 1759 1228 1600 
Q 959 1441 959 1056 
Q 959 750 1161 570 
Q 1363 391 1709 391 
Q 2188 391 2477 730 
Q 2766 1069 2766 1631 
L 2766 1759 
L 2194 1759 
z
M 3341 1997 
L 3341 0 
L 2766 0 
L 2766 531 
Q 2569 213 2275 61 
Q 1981 -91 1556 -91 
Q 1019 -91 701 211 
Q 384 513 384 1019 
Q 384 1609 779 1909 
Q 1175 2209 1959 2209 
L 2766 2209 
L 2766 2266 
Q 2766 2663 2505 2880 
Q 2244 3097 1772 3097 
Q 1472 3097 1187 3025 
Q 903 2953 641 2809 
L 641 3341 
Q 956 3463 1253 3523 
Q 1550 3584 1831 3584 
Q 2591 3584 2966 3190 
Q 3341 2797 3341 1997 
z
" transform="scale(0.015625)"/>
       <path id="DejaVuSans-69" d="M 603 3500 
L 1178 3500 
L 1178 0 
L 603 0 
L 603 3500 
z
M 603 4863 
L 1178 4863 
L 1178 4134 
L 603 4134 
L 603 4863 
z
" transform="scale(0.015625)"/>
       <path id="DejaVuSans-63" d="M 3122 3366 
L 3122 2828 
Q 2878 2963 2633 3030 
Q 2388 3097 2138 3097 
Q 1578 3097 1268 2742 
Q 959 2388 959 1747 
Q 959 1106 1268 751 
Q 1578 397 2138 397 
Q 2388 397 2633 464 
Q 2878 531 3122 666 
L 3122 134 
Q 2881 22 2623 -34 
Q 2366 -91 2075 -91 
Q 1284 -91 818 406 
Q 353 903 353 1747 
Q 353 2603 823 3093 
Q 1294 3584 2113 3584 
Q 2378 3584 2631 3529 
Q 2884 3475 3122 3366 
z
" transform="scale(0.015625)"/>
       <path id="DejaVuSans-20" transform="scale(0.015625)"/>
       <path id="DejaVuSans-72" d="M 2631 2963 
Q 2534 3019 2420 3045 
Q 2306 3072 2169 3072 
Q 1681 3072 1420 2755 
Q 1159 2438 1159 1844 
L 1159 0 
L 581 0 
L 581 3500 
L 1159 3500 
L 1159 2956 
Q 1341 3275 1631 3429 
Q 1922 3584 2338 3584 
Q 2397 3584 2469 3576 
Q 2541 3569 2628 3553 
L 2631 2963 
z
" transform="scale(0.015625)"/>
       <path id="DejaVuSans-73" d="M 2834 3397 
L 2834 2853 
Q 2591 2978 2328 3040 
Q 2066 3103 1784 3103 
Q 1356 3103 1142 2972 
Q 928 2841 928 2578 
Q 928 2378 1081 2264 
Q 1234 2150 1697 2047 
L 1894 2003 
Q 2506 1872 2764 1633 
Q 3022 1394 3022 966 
Q 3022 478 2636 193 
Q 2250 -91 1575 -91 
Q 1294 -91 989 -36 
Q 684 19 347 128 
L 347 722 
Q 666 556 975 473 
Q 1284 391 1588 391 
Q 1994 391 2212 530 
Q 2431 669 2431 922 
Q 2431 1156 2273 1281 
Q 2116 1406 1581 1522 
L 1381 1569 
Q 847 1681 609 1914 
Q 372 2147 372 2553 
Q 372 3047 722 3315 
Q 1072 3584 1716 3584 
Q 2034 3584 2315 3537 
Q 2597 3491 2834 3397 
z
" transform="scale(0.015625)"/>
       <path id="DejaVuSans-6b" d="M 581 4863 
L 1159 4863 
L 1159 1991 
L 2875 3500 
L 3609 3500 
L 1753 1863 
L 3688 0 
L 2938 0 
L 1159 1709 
L 1159 0 
L 581 0 
L 581 4863 
z
" transform="scale(0.015625)"/>
       <path id="DejaVuSans-6f" d="M 1959 3097 
Q 1497 3097 1228 2736 
Q 959 2375 959 1747 
Q 959 1119 1226 758 
Q 1494 397 1959 397 
Q 2419 397 2687 759 
Q 2956 1122 2956 1747 
Q 2956 2369 2687 2733 
Q 2419 3097 1959 3097 
z
M 1959 3584 
Q 2709 3584 3137 3096 
Q 3566 2609 3566 1747 
Q 3566 888 3137 398 
Q 2709 -91 1959 -91 
Q 1206 -91 779 398 
Q 353 888 353 1747 
Q 353 2609 779 3096 
Q 1206 3584 1959 3584 
z
" transform="scale(0.015625)"/>
       <path id="DejaVuSans-65" d="M 3597 1894 
L 3597 1613 
L 953 1613 
Q 991 1019 1311 708 
Q 1631 397 2203 397 
Q 2534 397 2845 478 
Q 3156 559 3463 722 
L 3463 178 
Q 3153 47 2828 -22 
Q 2503 -91 2169 -91 
Q 1331 -91 842 396 
Q 353 884 353 1716 
Q 353 2575 817 3079 
Q 1281 3584 2069 3584 
Q 2775 3584 3186 3129 
Q 3597 2675 3597 1894 
z
M 3022 2063 
Q 3016 2534 2758 2815 
Q 2500 3097 2075 3097 
Q 1594 3097 1305 2825 
Q 1016 2553 972 2059 
L 3022 2063 
z
" transform="scale(0.015625)"/>
      </defs>
      <use xlink:href="#DejaVuSans-53"/>
      <use xlink:href="#DejaVuSans-74" transform="translate(63.476562 0)"/>
      <use xlink:href="#DejaVuSans-61" transform="translate(102.685547 0)"/>
      <use xlink:href="#DejaVuSans-74" transform="translate(163.964844 0)"/>
      <use xlink:href="#DejaVuSans-69" transform="translate(203.173828 0)"/>
      <use xlink:href="#DejaVuSans-63" transform="translate(230.957031 0)"/>
      <use xlink:href="#DejaVuSans-20" transform="translate(285.9375 0)"/>
      <use xlink:href="#DejaVuSans-72" transform="translate(317.724609 0)"/>
      <use xlink:href="#DejaVuSans-69" transform="translate(358.837891 0)"/>
      <use xlink:href="#DejaVuSans-73" transform="translate(386.621094 0)"/>
      <use xlink:href="#DejaVuSans-6b" transform="translate(438.720703 0)"/>
      <use xlink:href="#DejaVuSans-20" transform="translate(496.630859 0)"/>
      <use xlink:href="#DejaVuSans-73" transform="translate(528.417969 0)"/>
      <use xlink:href="#DejaVuSans-63" transform="translate(580.517578 0)"/>
      <use xlink:href="#DejaVuSans-6f" transform="translate(635.498047 0)"/>
      <use xlink:href="#DejaVuSans-72" transform="translate(696.679688 0)"/>
      <use xlink:href="#DejaVuSans-65" transform="translate(735.542969 0)"/>
     </g>
    </g>
   </g>
   <g id="matplotlib.axis_2">
    <g id="ytick_1">
     <g id="line2d_17">
      <path d="M 40.603125 233.998125 
L 364.243125 233.998125 
" clip-path="url(#p1664c80610)" style="fill: none; stroke: #b0b0b0; stroke-opacity: 0.4; stroke-width: 0.3; stroke-linecap: square"/>
     </g>
     <g id="line2d_18">
      <defs>
       <path id="m33f35f5a60" d="M 0 0 
L -3.5 0 
" style="stroke: #000000; stroke-width: 0.8"/>
      </defs>
      <g>
       <use xlink:href="#m33f35f5a60" x="40.603125" y="233.998125" style="stroke: #000000; stroke-width: 0.8"/>
      </g>
     </g>
     <g id="text_10">
      <!-- 5 -->
      <g transform="translate(27.240625 237.797344) scale(0.1 -0.1)">
       <use xlink:href="#DejaVuSans-35"/>
      </g>
     </g>
    </g>
    <g id="ytick_2">
     <g id="line2d_19">
      <path d="M 40.603125 205.198125 
L 364.243125 205.198125 
" clip-path="url(#p1664c80610)" style="fill: none; stroke: #b0b0b0; stroke-opacity: 0.4; stroke-width: 0.3; stroke-linecap: square"/>
     </g>
     <g id="line2d_20">
      <g>
       <use xlink:href="#m33f35f5a60" x="40.603125" y="205.198125" style="stroke: #000000; stroke-width: 0.8"/>
      </g>
     </g>
     <g id="text_11">
      <!-- 6 -->
      <g transform="translate(27.240625 208.997344) scale(0.1 -0.1)">
       <use xlink:href="#DejaVuSans-36"/>
      </g>
     </g>
    </g>
    <g id="ytick_3">
     <g id="line2d_21">
      <path d="M 40.603125 176.398125 
L 364.243125 176.398125 
" clip-path="url(#p1664c80610)" style="fill: none; stroke: #b0b0b0; stroke-opacity: 0.4; stroke-width: 0.3; stroke-linecap: square"/>
     </g>
     <g id="line2d_22">
      <g>
       <use xlink:href="#m33f35f5a60" x="40.603125" y="176.398125" style="stroke: #000000; stroke-width: 0.8"/>
      </g>
     </g>
     <g id="text_12">
      <!-- 7 -->
      <g transform="translate(27.240625 180.197344) scale(0.1 -0.1)">
       <use xlink:href="#DejaVuSans-37"/>
      </g>
     </g>
    </g>
    <g id="ytick_4">
     <g id="line2d_23">
      <path d="M 40.603125 147.598125 
L 364.243125 147.598125 
" clip-path="url(#p1664c80610)" style="fill: none; stroke: #b0b0b0; stroke-opacity: 0.4; stroke-width: 0.3; stroke-linecap: square"/>
     </g>
     <g id="line2d_24">
      <g>
       <use xlink:href="#m33f35f5a60" x="40.603125" y="147.598125" style="stroke: #000000; stroke-width: 0.8"/>
      </g>
     </g>
     <g id="text_13">
      <!-- 8 -->
      <g transform="translate(27.240625 151.397344) scale(0.1 -0.1)">
       <defs>
        <path id="DejaVuSans-38" d="M 2034 2216 
Q 1584 2216 1326 1975 
Q 1069 1734 1069 1313 
Q 1069 891 1326 650 
Q 1584 409 2034 409 
Q 2484 409 2743 651 
Q 3003 894 3003 1313 
Q 3003 1734 2745 1975 
Q 2488 2216 2034 2216 
z
M 1403 2484 
Q 997 2584 770 2862 
Q 544 3141 544 3541 
Q 544 4100 942 4425 
Q 1341 4750 2034 4750 
Q 2731 4750 3128 4425 
Q 3525 4100 3525 3541 
Q 3525 3141 3298 2862 
Q 3072 2584 2669 2484 
Q 3125 2378 3379 2068 
Q 3634 1759 3634 1313 
Q 3634 634 3220 271 
Q 2806 -91 2034 -91 
Q 1263 -91 848 271 
Q 434 634 434 1313 
Q 434 1759 690 2068 
Q 947 2378 1403 2484 
z
M 1172 3481 
Q 1172 3119 1398 2916 
Q 1625 2713 2034 2713 
Q 2441 2713 2670 2916 
Q 2900 3119 2900 3481 
Q 2900 3844 2670 4047 
Q 2441 4250 2034 4250 
Q 1625 4250 1398 4047 
Q 1172 3844 1172 3481 
z
" transform="scale(0.015625)"/>
       </defs>
       <use xlink:href="#DejaVuSans-38"/>
      </g>
     </g>
    </g>
    <g id="ytick_5">
     <g id="line2d_25">
      <path d="M 40.603125 118.798125 
L 364.243125 118.798125 
" clip-path="url(#p1664c80610)" style="fill: none; stroke: #b0b0b0; stroke-opacity: 0.4; stroke-width: 0.3; stroke-linecap: square"/>
     </g>
     <g id="line2d_26">
      <g>
       <use xlink:href="#m33f35f5a60" x="40.603125" y="118.798125" style="stroke: #000000; stroke-width: 0.8"/>
      </g>
     </g>
     <g id="text_14">
      <!-- 9 -->
      <g transform="translate(27.240625 122.597344) scale(0.1 -0.1)">
       <defs>
        <path id="DejaVuSans-39" d="M 703 97 
L 703 672 
Q 941 559 1184 500 
Q 1428 441 1663 441 
Q 2288 441 2617 861 
Q 2947 1281 2994 2138 
Q 2813 1869 2534 1725 
Q 2256 1581 1919 1581 
Q 1219 1581 811 2004 
Q 403 2428 403 3163 
Q 403 3881 828 4315 
Q 1253 4750 1959 4750 
Q 2769 4750 3195 4129 
Q 3622 3509 3622 2328 
Q 3622 1225 3098 567 
Q 2575 -91 1691 -91 
Q 1453 -91 1209 -44 
Q 966 3 703 97 
z
M 1959 2075 
Q 2384 2075 2632 2365 
Q 2881 2656 2881 3163 
Q 2881 3666 2632 3958 
Q 2384 4250 1959 4250 
Q 1534 4250 1286 3958 
Q 1038 3666 1038 3163 
Q 1038 2656 1286 2365 
Q 1534 2075 1959 2075 
z
" transform="scale(0.015625)"/>
       </defs>
       <use xlink:href="#DejaVuSans-39"/>
      </g>
     </g>
    </g>
    <g id="ytick_6">
     <g id="line2d_27">
      <path d="M 40.603125 89.998125 
L 364.243125 89.998125 
" clip-path="url(#p1664c80610)" style="fill: none; stroke: #b0b0b0; stroke-opacity: 0.4; stroke-width: 0.3; stroke-linecap: square"/>
     </g>
     <g id="line2d_28">
      <g>
       <use xlink:href="#m33f35f5a60" x="40.603125" y="89.998125" style="stroke: #000000; stroke-width: 0.8"/>
      </g>
     </g>
     <g id="text_15">
      <!-- 10 -->
      <g transform="translate(20.878125 93.797344) scale(0.1 -0.1)">
       <use xlink:href="#DejaVuSans-31"/>
       <use xlink:href="#DejaVuSans-30" transform="translate(63.623047 0)"/>
      </g>
     </g>
    </g>
    <g id="ytick_7">
     <g id="line2d_29">
      <path d="M 40.603125 61.198125 
L 364.243125 61.198125 
" clip-path="url(#p1664c80610)" style="fill: none; stroke: #b0b0b0; stroke-opacity: 0.4; stroke-width: 0.3; stroke-linecap: square"/>
     </g>
     <g id="line2d_30">
      <g>
       <use xlink:href="#m33f35f5a60" x="40.603125" y="61.198125" style="stroke: #000000; stroke-width: 0.8"/>
      </g>
     </g>
     <g id="text_16">
      <!-- 11 -->
      <g transform="translate(20.878125 64.997344) scale(0.1 -0.1)">
       <use xlink:href="#DejaVuSans-31"/>
       <use xlink:href="#DejaVuSans-31" transform="translate(63.623047 0)"/>
      </g>
     </g>
    </g>
    <g id="ytick_8">
     <g id="line2d_31">
      <path d="M 40.603125 32.398125 
L 364.243125 32.398125 
" clip-path="url(#p1664c80610)" style="fill: none; stroke: #b0b0b0; stroke-opacity: 0.4; stroke-width: 0.3; stroke-linecap: square"/>
     </g>
     <g id="line2d_32">
      <g>
       <use xlink:href="#m33f35f5a60" x="40.603125" y="32.398125" style="stroke: #000000; stroke-width: 0.8"/>
      </g>
     </g>
     <g id="text_17">
      <!-- 12 -->
      <g transform="translate(20.878125 36.197344) scale(0.1 -0.1)">
       <use xlink:href="#DejaVuSans-31"/>
       <use xlink:href="#DejaVuSans-32" transform="translate(63.623047 0)"/>
      </g>
     </g>
    </g>
    <g id="text_18">
     <!-- Selected PCAP-backed runs -->
     <g transform="translate(14.798438 201.635625) rotate(-90) scale(0.1 -0.1)">
      <defs>
       <path id="DejaVuSans-6c" d="M 603 4863 
L 1178 4863 
L 1178 0 
L 603 0 
L 603 4863 
z
" transform="scale(0.015625)"/>
       <path id="DejaVuSans-64" d="M 2906 2969 
L 2906 4863 
L 3481 4863 
L 3481 0 
L 2906 0 
L 2906 525 
Q 2725 213 2448 61 
Q 2172 -91 1784 -91 
Q 1150 -91 751 415 
Q 353 922 353 1747 
Q 353 2572 751 3078 
Q 1150 3584 1784 3584 
Q 2172 3584 2448 3432 
Q 2725 3281 2906 2969 
z
M 947 1747 
Q 947 1113 1208 752 
Q 1469 391 1925 391 
Q 2381 391 2643 752 
Q 2906 1113 2906 1747 
Q 2906 2381 2643 2742 
Q 2381 3103 1925 3103 
Q 1469 3103 1208 2742 
Q 947 2381 947 1747 
z
" transform="scale(0.015625)"/>
       <path id="DejaVuSans-50" d="M 1259 4147 
L 1259 2394 
L 2053 2394 
Q 2494 2394 2734 2622 
Q 2975 2850 2975 3272 
Q 2975 3691 2734 3919 
Q 2494 4147 2053 4147 
L 1259 4147 
z
M 628 4666 
L 2053 4666 
Q 2838 4666 3239 4311 
Q 3641 3956 3641 3272 
Q 3641 2581 3239 2228 
Q 2838 1875 2053 1875 
L 1259 1875 
L 1259 0 
L 628 0 
L 628 4666 
z
" transform="scale(0.015625)"/>
       <path id="DejaVuSans-43" d="M 4122 4306 
L 4122 3641 
Q 3803 3938 3442 4084 
Q 3081 4231 2675 4231 
Q 1875 4231 1450 3742 
Q 1025 3253 1025 2328 
Q 1025 1406 1450 917 
Q 1875 428 2675 428 
Q 3081 428 3442 575 
Q 3803 722 4122 1019 
L 4122 359 
Q 3791 134 3420 21 
Q 3050 -91 2638 -91 
Q 1578 -91 968 557 
Q 359 1206 359 2328 
Q 359 3453 968 4101 
Q 1578 4750 2638 4750 
Q 3056 4750 3426 4639 
Q 3797 4528 4122 4306 
z
" transform="scale(0.015625)"/>
       <path id="DejaVuSans-41" d="M 2188 4044 
L 1331 1722 
L 3047 1722 
L 2188 4044 
z
M 1831 4666 
L 2547 4666 
L 4325 0 
L 3669 0 
L 3244 1197 
L 1141 1197 
L 716 0 
L 50 0 
L 1831 4666 
z
" transform="scale(0.015625)"/>
       <path id="DejaVuSans-2d" d="M 313 2009 
L 1997 2009 
L 1997 1497 
L 313 1497 
L 313 2009 
z
" transform="scale(0.015625)"/>
       <path id="DejaVuSans-62" d="M 3116 1747 
Q 3116 2381 2855 2742 
Q 2594 3103 2138 3103 
Q 1681 3103 1420 2742 
Q 1159 2381 1159 1747 
Q 1159 1113 1420 752 
Q 1681 391 2138 391 
Q 2594 391 2855 752 
Q 3116 1113 3116 1747 
z
M 1159 2969 
Q 1341 3281 1617 3432 
Q 1894 3584 2278 3584 
Q 2916 3584 3314 3078 
Q 3713 2572 3713 1747 
Q 3713 922 3314 415 
Q 2916 -91 2278 -91 
Q 1894 -91 1617 61 
Q 1341 213 1159 525 
L 1159 0 
L 581 0 
L 581 4863 
L 1159 4863 
L 1159 2969 
z
" transform="scale(0.015625)"/>
       <path id="DejaVuSans-75" d="M 544 1381 
L 544 3500 
L 1119 3500 
L 1119 1403 
Q 1119 906 1312 657 
Q 1506 409 1894 409 
Q 2359 409 2629 706 
Q 2900 1003 2900 1516 
L 2900 3500 
L 3475 3500 
L 3475 0 
L 2900 0 
L 2900 538 
Q 2691 219 2414 64 
Q 2138 -91 1772 -91 
Q 1169 -91 856 284 
Q 544 659 544 1381 
z
M 1991 3584 
L 1991 3584 
z
" transform="scale(0.015625)"/>
       <path id="DejaVuSans-6e" d="M 3513 2113 
L 3513 0 
L 2938 0 
L 2938 2094 
Q 2938 2591 2744 2837 
Q 2550 3084 2163 3084 
Q 1697 3084 1428 2787 
Q 1159 2491 1159 1978 
L 1159 0 
L 581 0 
L 581 3500 
L 1159 3500 
L 1159 2956 
Q 1366 3272 1645 3428 
Q 1925 3584 2291 3584 
Q 2894 3584 3203 3211 
Q 3513 2838 3513 2113 
z
" transform="scale(0.015625)"/>
      </defs>
      <use xlink:href="#DejaVuSans-53"/>
      <use xlink:href="#DejaVuSans-65" transform="translate(63.476562 0)"/>
      <use xlink:href="#DejaVuSans-6c" transform="translate(125 0)"/>
      <use xlink:href="#DejaVuSans-65" transform="translate(152.783203 0)"/>
      <use xlink:href="#DejaVuSans-63" transform="translate(214.306641 0)"/>
      <use xlink:href="#DejaVuSans-74" transform="translate(269.287109 0)"/>
      <use xlink:href="#DejaVuSans-65" transform="translate(308.496094 0)"/>
      <use xlink:href="#DejaVuSans-64" transform="translate(370.019531 0)"/>
      <use xlink:href="#DejaVuSans-20" transform="translate(433.496094 0)"/>
      <use xlink:href="#DejaVuSans-50" transform="translate(465.283203 0)"/>
      <use xlink:href="#DejaVuSans-43" transform="translate(525.585938 0)"/>
      <use xlink:href="#DejaVuSans-41" transform="translate(595.410156 0)"/>
      <use xlink:href="#DejaVuSans-50" transform="translate(663.818359 0)"/>
      <use xlink:href="#DejaVuSans-2d" transform="translate(721.871094 0)"/>
      <use xlink:href="#DejaVuSans-62" transform="translate(757.955078 0)"/>
      <use xlink:href="#DejaVuSans-61" transform="translate(821.431641 0)"/>
      <use xlink:href="#DejaVuSans-63" transform="translate(882.710938 0)"/>
      <use xlink:href="#DejaVuSans-6b" transform="translate(937.691406 0)"/>
      <use xlink:href="#DejaVuSans-65" transform="translate(991.976562 0)"/>
      <use xlink:href="#DejaVuSans-64" transform="translate(1053.5 0)"/>
      <use xlink:href="#DejaVuSans-20" transform="translate(1116.976562 0)"/>
      <use xlink:href="#DejaVuSans-72" transform="translate(1148.763672 0)"/>
      <use xlink:href="#DejaVuSans-75" transform="translate(1189.876953 0)"/>
      <use xlink:href="#DejaVuSans-6e" transform="translate(1253.255859 0)"/>
      <use xlink:href="#DejaVuSans-73" transform="translate(1316.634766 0)"/>
     </g>
    </g>
   </g>
   <g id="patch_3">
    <path d="M 40.603125 244.078125 
L 40.603125 22.318125 
" style="fill: none; stroke: #000000; stroke-width: 0.8; stroke-linejoin: miter; stroke-linecap: square"/>
   </g>
   <g id="patch_4">
    <path d="M 364.243125 244.078125 
L 364.243125 22.318125 
" style="fill: none; stroke: #000000; stroke-width: 0.8; stroke-linejoin: miter; stroke-linecap: square"/>
   </g>
   <g id="patch_5">
    <path d="M 40.603125 244.078125 
L 364.243125 244.078125 
" style="fill: none; stroke: #000000; stroke-width: 0.8; stroke-linejoin: miter; stroke-linecap: square"/>
   </g>
   <g id="patch_6">
    <path d="M 40.603125 22.318125 
L 364.243125 22.318125 
" style="fill: none; stroke: #000000; stroke-width: 0.8; stroke-linejoin: miter; stroke-linecap: square"/>
   </g>
   <g id="text_19">
    <!-- BBC News -->
    <g transform="translate(82.073241 87.998125) scale(0.06 -0.06)">
     <defs>
      <path id="DejaVuSans-42" d="M 1259 2228 
L 1259 519 
L 2272 519 
Q 2781 519 3026 730 
Q 3272 941 3272 1375 
Q 3272 1813 3026 2020 
Q 2781 2228 2272 2228 
L 1259 2228 
z
M 1259 4147 
L 1259 2741 
L 2194 2741 
Q 2656 2741 2882 2914 
Q 3109 3088 3109 3444 
Q 3109 3797 2882 3972 
Q 2656 4147 2194 4147 
L 1259 4147 
z
M 628 4666 
L 2241 4666 
Q 2963 4666 3353 4366 
Q 3744 4066 3744 3513 
Q 3744 3084 3544 2831 
Q 3344 2578 2956 2516 
Q 3422 2416 3680 2098 
Q 3938 1781 3938 1306 
Q 3938 681 3513 340 
Q 3088 0 2303 0 
L 628 0 
L 628 4666 
z
" transform="scale(0.015625)"/>
      <path id="DejaVuSans-4e" d="M 628 4666 
L 1478 4666 
L 3547 763 
L 3547 4666 
L 4159 4666 
L 4159 0 
L 3309 0 
L 1241 3903 
L 1241 0 
L 628 0 
L 628 4666 
z
" transform="scale(0.015625)"/>
      <path id="DejaVuSans-77" d="M 269 3500 
L 844 3500 
L 1563 769 
L 2278 3500 
L 2956 3500 
L 3675 769 
L 4391 3500 
L 4966 3500 
L 4050 0 
L 3372 0 
L 2619 2869 
L 1863 0 
L 1184 0 
L 269 3500 
z
" transform="scale(0.015625)"/>
     </defs>
     <use xlink:href="#DejaVuSans-42"/>
     <use xlink:href="#DejaVuSans-42" transform="translate(68.603516 0)"/>
     <use xlink:href="#DejaVuSans-43" transform="translate(135.457031 0)"/>
     <use xlink:href="#DejaVuSans-20" transform="translate(205.28125 0)"/>
     <use xlink:href="#DejaVuSans-4e" transform="translate(237.068359 0)"/>
     <use xlink:href="#DejaVuSans-65" transform="translate(311.873047 0)"/>
     <use xlink:href="#DejaVuSans-77" transform="translate(373.396484 0)"/>
     <use xlink:href="#DejaVuSans-73" transform="translate(455.183594 0)"/>
    </g>
   </g>
   <g id="text_20">
    <!-- CNN -->
    <g transform="translate(58.314034 30.398125) scale(0.06 -0.06)">
     <use xlink:href="#DejaVuSans-43"/>
     <use xlink:href="#DejaVuSans-4e" transform="translate(69.824219 0)"/>
     <use xlink:href="#DejaVuSans-4e" transform="translate(144.628906 0)"/>
    </g>
   </g>
   <g id="text_21">
    <!-- Facebook -->
    <g transform="translate(291.154264 145.598125) scale(0.06 -0.06)">
     <defs>
      <path id="DejaVuSans-46" d="M 628 4666 
L 3309 4666 
L 3309 4134 
L 1259 4134 
L 1259 2759 
L 3109 2759 
L 3109 2228 
L 1259 2228 
L 1259 0 
L 628 0 
L 628 4666 
z
" transform="scale(0.015625)"/>
     </defs>
     <use xlink:href="#DejaVuSans-46"/>
     <use xlink:href="#DejaVuSans-61" transform="translate(48.394531 0)"/>
     <use xlink:href="#DejaVuSans-63" transform="translate(109.673828 0)"/>
     <use xlink:href="#DejaVuSans-65" transform="translate(164.654297 0)"/>
     <use xlink:href="#DejaVuSans-62" transform="translate(226.177734 0)"/>
     <use xlink:href="#DejaVuSans-6f" transform="translate(289.654297 0)"/>
     <use xlink:href="#DejaVuSans-6f" transform="translate(350.835938 0)"/>
     <use xlink:href="#DejaVuSans-6b" transform="translate(412.017578 0)"/>
    </g>
   </g>
   <g id="text_22">
    <!-- Messenger -->
    <g transform="translate(286.402423 116.798125) scale(0.06 -0.06)">
     <defs>
      <path id="DejaVuSans-4d" d="M 628 4666 
L 1569 4666 
L 2759 1491 
L 3956 4666 
L 4897 4666 
L 4897 0 
L 4281 0 
L 4281 4097 
L 3078 897 
L 2444 897 
L 1241 4097 
L 1241 0 
L 628 0 
L 628 4666 
z
" transform="scale(0.015625)"/>
      <path id="DejaVuSans-67" d="M 2906 1791 
Q 2906 2416 2648 2759 
Q 2391 3103 1925 3103 
Q 1463 3103 1205 2759 
Q 947 2416 947 1791 
Q 947 1169 1205 825 
Q 1463 481 1925 481 
Q 2391 481 2648 825 
Q 2906 1169 2906 1791 
z
M 3481 434 
Q 3481 -459 3084 -895 
Q 2688 -1331 1869 -1331 
Q 1566 -1331 1297 -1286 
Q 1028 -1241 775 -1147 
L 775 -588 
Q 1028 -725 1275 -790 
Q 1522 -856 1778 -856 
Q 2344 -856 2625 -561 
Q 2906 -266 2906 331 
L 2906 616 
Q 2728 306 2450 153 
Q 2172 0 1784 0 
Q 1141 0 747 490 
Q 353 981 353 1791 
Q 353 2603 747 3093 
Q 1141 3584 1784 3584 
Q 2172 3584 2450 3431 
Q 2728 3278 2906 2969 
L 2906 3500 
L 3481 3500 
L 3481 434 
z
" transform="scale(0.015625)"/>
     </defs>
     <use xlink:href="#DejaVuSans-4d"/>
     <use xlink:href="#DejaVuSans-65" transform="translate(86.279297 0)"/>
     <use xlink:href="#DejaVuSans-73" transform="translate(147.802734 0)"/>
     <use xlink:href="#DejaVuSans-73" transform="translate(199.902344 0)"/>
     <use xlink:href="#DejaVuSans-65" transform="translate(252.001953 0)"/>
     <use xlink:href="#DejaVuSans-6e" transform="translate(313.525391 0)"/>
     <use xlink:href="#DejaVuSans-67" transform="translate(376.904297 0)"/>
     <use xlink:href="#DejaVuSans-65" transform="translate(440.380859 0)"/>
     <use xlink:href="#DejaVuSans-72" transform="translate(501.904297 0)"/>
    </g>
   </g>
   <g id="text_23">
    <!-- Instagram -->
    <g transform="translate(270.562951 174.398125) scale(0.06 -0.06)">
     <defs>
      <path id="DejaVuSans-49" d="M 628 4666 
L 1259 4666 
L 1259 0 
L 628 0 
L 628 4666 
z
" transform="scale(0.015625)"/>
      <path id="DejaVuSans-6d" d="M 3328 2828 
Q 3544 3216 3844 3400 
Q 4144 3584 4550 3584 
Q 5097 3584 5394 3201 
Q 5691 2819 5691 2113 
L 5691 0 
L 5113 0 
L 5113 2094 
Q 5113 2597 4934 2840 
Q 4756 3084 4391 3084 
Q 3944 3084 3684 2787 
Q 3425 2491 3425 1978 
L 3425 0 
L 2847 0 
L 2847 2094 
Q 2847 2600 2669 2842 
Q 2491 3084 2119 3084 
Q 1678 3084 1418 2786 
Q 1159 2488 1159 1978 
L 1159 0 
L 581 0 
L 581 3500 
L 1159 3500 
L 1159 2956 
Q 1356 3278 1631 3431 
Q 1906 3584 2284 3584 
Q 2666 3584 2933 3390 
Q 3200 3197 3328 2828 
z
" transform="scale(0.015625)"/>
     </defs>
     <use xlink:href="#DejaVuSans-49"/>
     <use xlink:href="#DejaVuSans-6e" transform="translate(29.492188 0)"/>
     <use xlink:href="#DejaVuSans-73" transform="translate(92.871094 0)"/>
     <use xlink:href="#DejaVuSans-74" transform="translate(144.970703 0)"/>
     <use xlink:href="#DejaVuSans-61" transform="translate(184.179688 0)"/>
     <use xlink:href="#DejaVuSans-67" transform="translate(245.458984 0)"/>
     <use xlink:href="#DejaVuSans-72" transform="translate(308.935547 0)"/>
     <use xlink:href="#DejaVuSans-61" transform="translate(350.048828 0)"/>
     <use xlink:href="#DejaVuSans-6d" transform="translate(411.328125 0)"/>
    </g>
   </g>
   <g id="text_24">
    <!-- LinkedIn -->
    <g transform="translate(215.124801 145.598125) scale(0.06 -0.06)">
     <defs>
      <path id="DejaVuSans-4c" d="M 628 4666 
L 1259 4666 
L 1259 531 
L 3531 531 
L 3531 0 
L 628 0 
L 628 4666 
z
" transform="scale(0.015625)"/>
     </defs>
     <use xlink:href="#DejaVuSans-4c"/>
     <use xlink:href="#DejaVuSans-69" transform="translate(55.712891 0)"/>
     <use xlink:href="#DejaVuSans-6e" transform="translate(83.496094 0)"/>
     <use xlink:href="#DejaVuSans-6b" transform="translate(146.875 0)"/>
     <use xlink:href="#DejaVuSans-65" transform="translate(201.160156 0)"/>
     <use xlink:href="#DejaVuSans-64" transform="translate(262.683594 0)"/>
     <use xlink:href="#DejaVuSans-49" transform="translate(326.160156 0)"/>
     <use xlink:href="#DejaVuSans-6e" transform="translate(355.652344 0)"/>
    </g>
   </g>
   <g id="text_25">
    <!-- Pinterest -->
    <g transform="translate(166.02244 174.398125) scale(0.06 -0.06)">
     <use xlink:href="#DejaVuSans-50"/>
     <use xlink:href="#DejaVuSans-69" transform="translate(58.052734 0)"/>
     <use xlink:href="#DejaVuSans-6e" transform="translate(85.835938 0)"/>
     <use xlink:href="#DejaVuSans-74" transform="translate(149.214844 0)"/>
     <use xlink:href="#DejaVuSans-65" transform="translate(188.423828 0)"/>
     <use xlink:href="#DejaVuSans-72" transform="translate(249.947266 0)"/>
     <use xlink:href="#DejaVuSans-65" transform="translate(288.810547 0)"/>
     <use xlink:href="#DejaVuSans-73" transform="translate(350.333984 0)"/>
     <use xlink:href="#DejaVuSans-74" transform="translate(402.433594 0)"/>
    </g>
   </g>
   <g id="text_26">
    <!-- Reddit -->
    <g transform="translate(178.694017 203.198125) scale(0.06 -0.06)">
     <defs>
      <path id="DejaVuSans-52" d="M 2841 2188 
Q 3044 2119 3236 1894 
Q 3428 1669 3622 1275 
L 4263 0 
L 3584 0 
L 2988 1197 
Q 2756 1666 2539 1819 
Q 2322 1972 1947 1972 
L 1259 1972 
L 1259 0 
L 628 0 
L 628 4666 
L 2053 4666 
Q 2853 4666 3247 4331 
Q 3641 3997 3641 3322 
Q 3641 2881 3436 2590 
Q 3231 2300 2841 2188 
z
M 1259 4147 
L 1259 2491 
L 2053 2491 
Q 2509 2491 2742 2702 
Q 2975 2913 2975 3322 
Q 2975 3731 2742 3939 
Q 2509 4147 2053 4147 
L 1259 4147 
z
" transform="scale(0.015625)"/>
     </defs>
     <use xlink:href="#DejaVuSans-52"/>
     <use xlink:href="#DejaVuSans-65" transform="translate(64.982422 0)"/>
     <use xlink:href="#DejaVuSans-64" transform="translate(126.505859 0)"/>
     <use xlink:href="#DejaVuSans-64" transform="translate(189.982422 0)"/>
     <use xlink:href="#DejaVuSans-69" transform="translate(253.458984 0)"/>
     <use xlink:href="#DejaVuSans-74" transform="translate(281.242188 0)"/>
    </g>
   </g>
   <g id="text_27">
    <!-- Signal -->
    <g transform="translate(272.146898 174.398125) scale(0.06 -0.06)">
     <use xlink:href="#DejaVuSans-53"/>
     <use xlink:href="#DejaVuSans-69" transform="translate(63.476562 0)"/>
     <use xlink:href="#DejaVuSans-67" transform="translate(91.259766 0)"/>
     <use xlink:href="#DejaVuSans-6e" transform="translate(154.736328 0)"/>
     <use xlink:href="#DejaVuSans-61" transform="translate(218.115234 0)"/>
     <use xlink:href="#DejaVuSans-6c" transform="translate(279.394531 0)"/>
    </g>
   </g>
   <g id="text_28">
    <!-- Snapchat -->
    <g transform="translate(292.738211 231.998125) scale(0.06 -0.06)">
     <defs>
      <path id="DejaVuSans-70" d="M 1159 525 
L 1159 -1331 
L 581 -1331 
L 581 3500 
L 1159 3500 
L 1159 2969 
Q 1341 3281 1617 3432 
Q 1894 3584 2278 3584 
Q 2916 3584 3314 3078 
Q 3713 2572 3713 1747 
Q 3713 922 3314 415 
Q 2916 -91 2278 -91 
Q 1894 -91 1617 61 
Q 1341 213 1159 525 
z
M 3116 1747 
Q 3116 2381 2855 2742 
Q 2594 3103 2138 3103 
Q 1681 3103 1420 2742 
Q 1159 2381 1159 1747 
Q 1159 1113 1420 752 
Q 1681 391 2138 391 
Q 2594 391 2855 752 
Q 3116 1113 3116 1747 
z
" transform="scale(0.015625)"/>
      <path id="DejaVuSans-68" d="M 3513 2113 
L 3513 0 
L 2938 0 
L 2938 2094 
Q 2938 2591 2744 2837 
Q 2550 3084 2163 3084 
Q 1697 3084 1428 2787 
Q 1159 2491 1159 1978 
L 1159 0 
L 581 0 
L 581 4863 
L 1159 4863 
L 1159 2956 
Q 1366 3272 1645 3428 
Q 1925 3584 2291 3584 
Q 2894 3584 3203 3211 
Q 3513 2838 3513 2113 
z
" transform="scale(0.015625)"/>
     </defs>
     <use xlink:href="#DejaVuSans-53"/>
     <use xlink:href="#DejaVuSans-6e" transform="translate(63.476562 0)"/>
     <use xlink:href="#DejaVuSans-61" transform="translate(126.855469 0)"/>
     <use xlink:href="#DejaVuSans-70" transform="translate(188.134766 0)"/>
     <use xlink:href="#DejaVuSans-63" transform="translate(251.611328 0)"/>
     <use xlink:href="#DejaVuSans-68" transform="translate(306.591797 0)"/>
     <use xlink:href="#DejaVuSans-61" transform="translate(369.970703 0)"/>
     <use xlink:href="#DejaVuSans-74" transform="translate(431.25 0)"/>
    </g>
   </g>
   <g id="text_29">
    <!-- Telegram -->
    <g transform="translate(314.517484 174.398125) scale(0.06 -0.06)">
     <defs>
      <path id="DejaVuSans-54" d="M -19 4666 
L 3928 4666 
L 3928 4134 
L 2272 4134 
L 2272 0 
L 1638 0 
L 1638 4134 
L -19 4134 
L -19 4666 
z
" transform="scale(0.015625)"/>
     </defs>
     <use xlink:href="#DejaVuSans-54"/>
     <use xlink:href="#DejaVuSans-65" transform="translate(44.083984 0)"/>
     <use xlink:href="#DejaVuSans-6c" transform="translate(105.607422 0)"/>
     <use xlink:href="#DejaVuSans-65" transform="translate(133.390625 0)"/>
     <use xlink:href="#DejaVuSans-67" transform="translate(194.914062 0)"/>
     <use xlink:href="#DejaVuSans-72" transform="translate(258.390625 0)"/>
     <use xlink:href="#DejaVuSans-61" transform="translate(299.503906 0)"/>
     <use xlink:href="#DejaVuSans-6d" transform="translate(360.783203 0)"/>
    </g>
   </g>
   <g id="text_30">
    <!-- The Guardian -->
    <g transform="translate(82.865215 116.798125) scale(0.06 -0.06)">
     <defs>
      <path id="DejaVuSans-47" d="M 3809 666 
L 3809 1919 
L 2778 1919 
L 2778 2438 
L 4434 2438 
L 4434 434 
Q 4069 175 3628 42 
Q 3188 -91 2688 -91 
Q 1594 -91 976 548 
Q 359 1188 359 2328 
Q 359 3472 976 4111 
Q 1594 4750 2688 4750 
Q 3144 4750 3555 4637 
Q 3966 4525 4313 4306 
L 4313 3634 
Q 3963 3931 3569 4081 
Q 3175 4231 2741 4231 
Q 1884 4231 1454 3753 
Q 1025 3275 1025 2328 
Q 1025 1384 1454 906 
Q 1884 428 2741 428 
Q 3075 428 3337 486 
Q 3600 544 3809 666 
z
" transform="scale(0.015625)"/>
     </defs>
     <use xlink:href="#DejaVuSans-54"/>
     <use xlink:href="#DejaVuSans-68" transform="translate(61.083984 0)"/>
     <use xlink:href="#DejaVuSans-65" transform="translate(124.462891 0)"/>
     <use xlink:href="#DejaVuSans-20" transform="translate(185.986328 0)"/>
     <use xlink:href="#DejaVuSans-47" transform="translate(217.773438 0)"/>
     <use xlink:href="#DejaVuSans-75" transform="translate(295.263672 0)"/>
     <use xlink:href="#DejaVuSans-61" transform="translate(358.642578 0)"/>
     <use xlink:href="#DejaVuSans-72" transform="translate(419.921875 0)"/>
     <use xlink:href="#DejaVuSans-64" transform="translate(459.285156 0)"/>
     <use xlink:href="#DejaVuSans-69" transform="translate(522.761719 0)"/>
     <use xlink:href="#DejaVuSans-61" transform="translate(550.544922 0)"/>
     <use xlink:href="#DejaVuSans-6e" transform="translate(611.824219 0)"/>
    </g>
   </g>
   <g id="text_31">
    <!-- TikTok -->
    <g transform="translate(227.796378 59.198125) scale(0.06 -0.06)">
     <use xlink:href="#DejaVuSans-54"/>
     <use xlink:href="#DejaVuSans-69" transform="translate(57.958984 0)"/>
     <use xlink:href="#DejaVuSans-6b" transform="translate(85.742188 0)"/>
     <use xlink:href="#DejaVuSans-54" transform="translate(143.652344 0)"/>
     <use xlink:href="#DejaVuSans-6f" transform="translate(187.736328 0)"/>
     <use xlink:href="#DejaVuSans-6b" transform="translate(248.917969 0)"/>
    </g>
   </g>
   <g id="text_32">
    <!-- WhatsApp -->
    <g transform="translate(352.532216 116.798125) scale(0.06 -0.06)">
     <defs>
      <path id="DejaVuSans-57" d="M 213 4666 
L 850 4666 
L 1831 722 
L 2809 4666 
L 3519 4666 
L 4500 722 
L 5478 4666 
L 6119 4666 
L 4947 0 
L 4153 0 
L 3169 4050 
L 2175 0 
L 1381 0 
L 213 4666 
z
" transform="scale(0.015625)"/>
     </defs>
     <use xlink:href="#DejaVuSans-57"/>
     <use xlink:href="#DejaVuSans-68" transform="translate(98.876953 0)"/>
     <use xlink:href="#DejaVuSans-61" transform="translate(162.255859 0)"/>
     <use xlink:href="#DejaVuSans-74" transform="translate(223.535156 0)"/>
     <use xlink:href="#DejaVuSans-73" transform="translate(262.744141 0)"/>
     <use xlink:href="#DejaVuSans-41" transform="translate(314.84375 0)"/>
     <use xlink:href="#DejaVuSans-70" transform="translate(383.251953 0)"/>
     <use xlink:href="#DejaVuSans-70" transform="translate(446.728516 0)"/>
    </g>
   </g>
   <g id="text_33">
    <!-- X -->
    <g transform="translate(230.964273 145.598125) scale(0.06 -0.06)">
     <defs>
      <path id="DejaVuSans-58" d="M 403 4666 
L 1081 4666 
L 2241 2931 
L 3406 4666 
L 4084 4666 
L 2584 2425 
L 4184 0 
L 3506 0 
L 2194 1984 
L 872 0 
L 191 0 
L 1856 2491 
L 403 4666 
z
" transform="scale(0.015625)"/>
     </defs>
     <use xlink:href="#DejaVuSans-58"/>
    </g>
   </g>
   <g id="text_34">
    <!-- Static posture and runtime evidence depth -->
    <g transform="translate(73.364063 16.318125) scale(0.12 -0.12)">
     <defs>
      <path id="DejaVuSans-76" d="M 191 3500 
L 800 3500 
L 1894 563 
L 2988 3500 
L 3597 3500 
L 2284 0 
L 1503 0 
L 191 3500 
z
" transform="scale(0.015625)"/>
     </defs>
     <use xlink:href="#DejaVuSans-53"/>
     <use xlink:href="#DejaVuSans-74" transform="translate(63.476562 0)"/>
     <use xlink:href="#DejaVuSans-61" transform="translate(102.685547 0)"/>
     <use xlink:href="#DejaVuSans-74" transform="translate(163.964844 0)"/>
     <use xlink:href="#DejaVuSans-69" transform="translate(203.173828 0)"/>
     <use xlink:href="#DejaVuSans-63" transform="translate(230.957031 0)"/>
     <use xlink:href="#DejaVuSans-20" transform="translate(285.9375 0)"/>
     <use xlink:href="#DejaVuSans-70" transform="translate(317.724609 0)"/>
     <use xlink:href="#DejaVuSans-6f" transform="translate(381.201172 0)"/>
     <use xlink:href="#DejaVuSans-73" transform="translate(442.382812 0)"/>
     <use xlink:href="#DejaVuSans-74" transform="translate(494.482422 0)"/>
     <use xlink:href="#DejaVuSans-75" transform="translate(533.691406 0)"/>
     <use xlink:href="#DejaVuSans-72" transform="translate(597.070312 0)"/>
     <use xlink:href="#DejaVuSans-65" transform="translate(635.933594 0)"/>
     <use xlink:href="#DejaVuSans-20" transform="translate(697.457031 0)"/>
     <use xlink:href="#DejaVuSans-61" transform="translate(729.244141 0)"/>
     <use xlink:href="#DejaVuSans-6e" transform="translate(790.523438 0)"/>
     <use xlink:href="#DejaVuSans-64" transform="translate(853.902344 0)"/>
     <use xlink:href="#DejaVuSans-20" transform="translate(917.378906 0)"/>
     <use xlink:href="#DejaVuSans-72" transform="translate(949.166016 0)"/>
     <use xlink:href="#DejaVuSans-75" transform="translate(990.279297 0)"/>
     <use xlink:href="#DejaVuSans-6e" transform="translate(1053.658203 0)"/>
     <use xlink:href="#DejaVuSans-74" transform="translate(1117.037109 0)"/>
     <use xlink:href="#DejaVuSans-69" transform="translate(1156.246094 0)"/>
     <use xlink:href="#DejaVuSans-6d" transform="translate(1184.029297 0)"/>
     <use xlink:href="#DejaVuSans-65" transform="translate(1281.441406 0)"/>
     <use xlink:href="#DejaVuSans-20" transform="translate(1342.964844 0)"/>
     <use xlink:href="#DejaVuSans-65" transform="translate(1374.751953 0)"/>
     <use xlink:href="#DejaVuSans-76" transform="translate(1436.275391 0)"/>
     <use xlink:href="#DejaVuSans-69" transform="translate(1495.455078 0)"/>
     <use xlink:href="#DejaVuSans-64" transform="translate(1523.238281 0)"/>
     <use xlink:href="#DejaVuSans-65" transform="translate(1586.714844 0)"/>
     <use xlink:href="#DejaVuSans-6e" transform="translate(1648.238281 0)"/>
     <use xlink:href="#DejaVuSans-63" transform="translate(1711.617188 0)"/>
     <use xlink:href="#DejaVuSans-65" transform="translate(1766.597656 0)"/>
     <use xlink:href="#DejaVuSans-20" transform="translate(1828.121094 0)"/>
     <use xlink:href="#DejaVuSans-64" transform="translate(1859.908203 0)"/>
     <use xlink:href="#DejaVuSans-65" transform="translate(1923.384766 0)"/>
     <use xlink:href="#DejaVuSans-70" transform="translate(1984.908203 0)"/>
     <use xlink:href="#DejaVuSans-74" transform="translate(2048.384766 0)"/>
     <use xlink:href="#DejaVuSans-68" transform="translate(2087.59375 0)"/>
    </g>
   </g>
  </g>
 </g>
 <defs>
  <clipPath id="p1664c80610">
   <rect x="40.603125" y="22.318125" width="323.64" height="221.76"/>
  </clipPath>
 </defs>
</svg>
